<svg xmlns="http://www.w3.org/2000/svg" width="1080" height="1080" viewBox="0 0 1080 1080" version="1.1">
	<path d="M 396.753 399.508 C 394.309 401.987, 391.122 406.197, 389.672 408.862 C 386.234 415.179, 384.619 426.125, 386.104 433.050 C 386.704 435.848, 387.383 437.950, 387.613 437.720 C 387.843 437.491, 388.703 434.647, 389.525 431.401 C 391.786 422.477, 399.133 402, 400.075 402 C 400.996 402, 400.012 405.511, 394.749 421.010 C 392.786 426.791, 390.860 433.316, 390.469 435.510 L 389.757 439.500 393.814 435.610 C 398.807 430.823, 403.405 422.302, 404.933 415.007 C 406.585 407.115, 404.848 395, 402.064 395 C 401.587 395, 399.198 397.029, 396.753 399.508 M 432.500 400.379 C 423.621 403.231, 416.774 408.397, 410.648 416.867 C 407.392 421.369, 404.540 427.873, 405.432 428.765 C 405.674 429.007, 409.839 426.521, 414.686 423.239 C 431.414 411.914, 446.158 402.996, 448.131 403.010 C 449.536 403.019, 443.325 407.162, 427.500 416.771 C 397.053 435.258, 353.920 473.288, 338.611 495.144 C 337.410 496.860, 336.967 496.771, 330.381 493.485 C 322.036 489.323, 313.764 488.149, 305.874 490.006 C 292.415 493.175, 285.962 499.136, 279.360 514.500 C 278.808 515.784, 278.400 511.757, 278.221 503.250 C 278.068 495.962, 277.843 490, 277.721 490.001 C 277.599 490.001, 275.043 490.935, 272.040 492.076 C 269.037 493.218, 263.510 494.409, 259.757 494.724 C 256.005 495.038, 252.710 495.660, 252.435 496.105 C 252.160 496.550, 253.282 497.612, 254.929 498.463 C 256.953 499.510, 258.278 501.225, 259.018 503.756 C 259.771 506.331, 260.018 525.157, 259.807 564.045 C 259.519 617.103, 259.386 620.764, 257.648 623.415 C 256.630 624.969, 254.942 626.464, 253.898 626.737 C 252.854 627.010, 252 627.631, 252 628.117 C 252 628.602, 259.875 629, 269.500 629 C 279.125 629, 287 628.752, 287 628.448 C 287 628.144, 285.686 627.438, 284.081 626.878 C 279.802 625.387, 278 620.746, 278 611.218 C 278 602.458, 281.055 592.419, 288.565 576.500 C 296.822 558.996, 311.725 534.522, 323.995 518.313 C 328.443 512.438, 328.957 512.052, 329.926 513.862 C 333.850 521.193, 335.214 541.920, 332.467 552.467 C 328.812 566.497, 320.674 578.045, 311.617 582.051 C 309.266 583.091, 304.790 584.242, 301.671 584.609 C 293.725 585.543, 294.599 587, 303.106 587 C 325.632 587, 343.833 573.810, 351.137 552.190 C 352.838 547.154, 353.406 543.151, 353.434 536 C 353.481 523.943, 350.748 514.680, 344.417 505.432 C 341.915 501.777, 340.075 498.246, 340.329 497.584 C 342.223 492.650, 370.283 463.469, 389.755 446.183 C 402.370 434.985, 407.265 432, 413.011 432 C 422.729 432, 435.223 426.574, 442.183 419.332 C 446.400 414.944, 450.698 406.898, 451.175 402.500 L 451.500 399.500 444 399.297 C 439.875 399.186, 434.700 399.673, 432.500 400.379 M 363.614 421.250 C 357.221 431.297, 356.542 449.994, 362.241 459.025 L 364.434 462.500 365.276 453 C 365.738 447.775, 365.893 438.775, 365.619 433 C 365.246 425.135, 365.384 423.127, 366.169 425 C 367.338 427.790, 367.554 448.337, 366.495 456.036 C 365.916 460.250, 366.043 460.921, 367.332 460.426 C 370.187 459.331, 373.354 450.902, 373.800 443.219 C 374.293 434.704, 372.859 427.990, 369.428 422.750 C 366.583 418.407, 365.587 418.150, 363.614 421.250 M 407.500 439.402 C 402.833 440.882, 395.367 444.597, 394.615 445.814 C 394.046 446.734, 399.029 446.534, 417.815 444.881 C 424.589 444.285, 430.358 444.025, 430.637 444.303 C 431.485 445.152, 426.240 445.921, 409.119 447.458 C 400.109 448.267, 392.502 449.165, 392.214 449.452 C 391.926 449.740, 393.898 450.958, 396.595 452.157 C 403.255 455.120, 414.824 455.775, 422.269 453.610 C 428.211 451.883, 436.290 446.449, 436.792 443.843 C 437.623 439.525, 416.982 436.395, 407.500 439.402 M 757.500 455.840 C 754.412 456.859, 752.533 458.276, 750.690 460.973 C 746.091 467.702, 752.102 477, 761.050 477 C 765.915 477, 771 471.437, 771 466.116 C 771 459.194, 763.843 453.746, 757.500 455.840 M 383.500 460.893 C 379.576 461.615, 371 465.517, 371 466.581 C 371 466.878, 378.440 467.034, 387.532 466.926 C 396.625 466.819, 404.350 467.017, 404.699 467.366 C 405.048 467.715, 400.196 468.053, 393.917 468.117 C 387.637 468.181, 379.575 468.543, 376 468.920 L 369.500 469.607 376.500 473.022 C 382.532 475.965, 384.484 476.430, 390.618 476.381 C 396.799 476.332, 398.566 475.869, 404.052 472.858 C 407.527 470.952, 410.544 468.867, 410.758 468.226 C 411.235 466.794, 405.739 463.308, 401 462.036 C 395.584 460.583, 387.908 460.082, 383.500 460.893 M 805.709 468.955 C 802.054 479.248, 792.874 487.990, 783.523 490.082 C 780.485 490.762, 778 491.675, 778 492.111 C 778 492.548, 780.813 493.039, 784.250 493.202 L 790.500 493.500 791 534.678 C 791.567 581.357, 791.176 579.231, 800.020 583.750 C 803.695 585.627, 806.035 586, 814.153 586 C 819.560 586, 824.157 585.556, 824.500 585 C 824.873 584.396, 823.505 584, 821.044 584 C 817.801 584, 816.210 583.303, 813.235 580.578 L 809.500 577.156 809.209 535.078 L 808.917 493 816.900 493 C 821.290 493, 825.160 492.550, 825.500 492 C 825.885 491.378, 823.736 490.960, 819.809 490.894 C 808.317 490.700, 809.537 492.273, 809.221 477.250 C 809.068 469.962, 808.611 464, 808.206 464 C 807.801 464, 806.677 466.230, 805.709 468.955 M 403.299 490.102 C 396.188 491.288, 386.460 495.358, 380.766 499.529 C 374.560 504.075, 367.711 512.904, 364.966 519.897 C 362.270 526.766, 361.215 542.112, 362.898 549.961 C 367.914 573.351, 389.176 588.607, 414 586.629 C 426.640 585.621, 437.602 581.173, 445.590 573.810 C 451.413 568.443, 451.487 565.648, 445.680 570.406 C 443.304 572.353, 438.692 575.195, 435.430 576.723 C 430.178 579.183, 428.357 579.499, 419.500 579.488 C 410.252 579.477, 409.048 579.240, 403.484 576.341 C 396.882 572.902, 389.293 565.459, 386.203 559.392 C 384.626 556.296, 381 545.791, 381 544.318 C 381 544.143, 386.074 544, 392.276 544 C 428.785 544, 451.501 533.067, 451.399 515.546 C 451.295 497.707, 428.856 485.837, 403.299 490.102 M 491 489.691 C 481.999 491.198, 470.330 497.223, 466.169 502.512 C 462.594 507.057, 461.686 512.175, 463.604 516.969 C 465.661 522.110, 469.714 524.436, 475.309 523.685 C 480.361 523.008, 483.025 520.349, 483.615 515.397 C 484.198 510.491, 482.484 507.172, 477.793 504.127 C 474.599 502.054, 474.286 501.511, 475.318 499.839 C 476.996 497.120, 485.714 493.229, 492.521 492.162 C 498.432 491.235, 506.108 492.347, 510.613 494.782 C 516.955 498.209, 521.765 507.897, 520.622 514.940 C 519.323 522.948, 512.566 527.799, 493.425 534.464 C 476.588 540.327, 473.120 541.996, 467.799 546.793 C 453.577 559.615, 459.334 580.349, 478.560 585.554 C 491.753 589.125, 506.859 585.394, 515.646 576.395 C 520.408 571.517, 520.842 571.283, 521.385 573.309 C 521.708 574.514, 521.979 577.172, 521.986 579.215 C 521.997 582.033, 522.543 583.223, 524.250 584.143 C 527.130 585.696, 548 586.658, 548 585.237 C 548 584.676, 546.881 583.936, 545.513 583.593 C 544.145 583.249, 542.232 581.759, 541.263 580.281 C 539.697 577.893, 539.444 573.898, 539 544.546 C 538.524 513.063, 538.398 511.311, 536.335 507.500 C 533.563 502.380, 527.694 496.810, 522.144 494.032 C 514.275 490.093, 500.265 488.140, 491 489.691 M 687.330 490.487 C 667.616 495.025, 653.794 508.047, 649.541 526.087 C 644.677 546.724, 652.260 567.897, 668.477 578.961 C 686.463 591.231, 715.361 588.779, 732.626 573.519 C 738.244 568.553, 737.973 566.277, 732.296 570.749 C 708.547 589.454, 678.205 580.064, 669.481 551.310 C 667.157 543.652, 666.659 544, 679.928 544 C 694.785 544, 705.197 542.599, 715.460 539.218 C 736.109 532.417, 743.843 516.057, 732.954 502.215 C 729.650 498.014, 722.227 493.208, 716.449 491.528 C 708.732 489.285, 694.729 488.784, 687.330 490.487 M 763.453 491.558 C 760.445 492.982, 755.495 494.219, 751.203 494.618 C 747.241 494.986, 744 495.628, 744 496.045 C 744 496.462, 745.575 497.732, 747.500 498.867 L 751 500.933 751 539.390 L 751 577.847 748.411 580.923 C 746.987 582.615, 745.112 584, 744.244 584 C 743.377 584, 742.906 584.239, 743.198 584.531 C 744.039 585.372, 778.001 585.585, 778 584.750 C 778 584.337, 777.305 584, 776.455 584 C 775.605 584, 773.805 582.895, 772.455 581.545 L 770 579.091 770 534.045 C 770 509.270, 769.663 489.038, 769.250 489.083 C 768.837 489.129, 766.229 490.243, 763.453 491.558 M 404.698 493.444 C 393.992 497.263, 386.634 506.131, 382.569 520.115 C 380.682 526.606, 379.741 537.963, 380.930 539.888 C 382.323 542.140, 410.065 540.920, 416.632 538.316 C 427.307 534.084, 433.616 526.118, 434.714 515.486 C 436.409 499.063, 420.892 487.668, 404.698 493.444 M 690.885 493.380 C 683.582 495.989, 676.585 502.603, 672.524 510.736 C 669.628 516.535, 667 528.559, 667 536.014 L 667 540.853 675.750 541.194 C 700.097 542.142, 713.457 537.007, 719.129 524.522 C 721.234 519.889, 721.543 511.545, 719.823 505.805 C 718.284 500.667, 712.138 494.410, 707.314 493.070 C 702.239 491.661, 695.330 491.791, 690.885 493.380 M 299.127 495.017 C 291.267 498.362, 283.929 508.436, 280.663 520.365 C 278.970 526.551, 278.651 531.758, 278.269 559.500 C 278.027 577.100, 278.148 591.181, 278.539 590.792 C 278.930 590.402, 280.740 586.444, 282.561 581.995 C 289.284 565.570, 302.478 543.176, 318.590 520.842 C 323.215 514.430, 327 508.870, 327 508.486 C 327 506.679, 320.353 499.705, 316.453 497.419 C 311.616 494.585, 302.961 493.385, 299.127 495.017 M 567.685 497.925 C 551.726 507.288, 542.712 526.866, 546.003 545.016 C 550.846 571.722, 577.188 591.073, 603.206 587.036 C 616.400 584.989, 625.912 579.967, 635.364 570.057 C 641.910 563.194, 642.805 560.402, 636.980 565.016 C 629.295 571.103, 623.419 573.245, 612.979 573.768 C 592.737 574.782, 576.072 566.039, 566.995 549.643 C 557.026 531.634, 558.125 513.039, 569.945 499.750 C 574.794 494.298, 574.405 493.983, 567.685 497.925 M 612.995 509.522 C 611.883 514.881, 611.683 515.128, 606.220 517.891 L 600.591 520.737 604.045 522.489 C 610.254 525.638, 611 526.782, 611 533.155 C 611 536.370, 611.260 539, 611.578 539 C 611.897 539, 613.939 537.200, 616.117 535 C 620.494 530.579, 622.474 530.198, 629.030 532.511 C 631.385 533.342, 633.488 533.845, 633.704 533.630 C 633.919 533.414, 632.867 530.733, 631.365 527.672 L 628.635 522.106 631.728 517.130 C 633.429 514.394, 634.642 511.975, 634.422 511.755 C 634.202 511.535, 631.655 511.694, 628.761 512.108 L 623.500 512.859 619.338 508.430 C 617.048 505.993, 614.943 504, 614.658 504 C 614.374 504, 613.626 506.485, 612.995 509.522 M 516.654 527.009 C 514.538 528.587, 507.524 532.617, 501.066 535.966 C 488.658 542.399, 483.970 546.143, 481.055 551.947 C 477.188 559.646, 477.602 567.146, 482.277 574.084 C 489.295 584.497, 505.435 584.536, 514.037 574.160 C 519.534 567.530, 521.089 559.832, 520.775 540.807 L 520.500 524.139 516.654 527.009" stroke="none" fill="#000000" fill-rule="evenodd"/>
</svg>